<svg xmlns="http://www.w3.org/2000/svg" viewBox="0 0 32 32" width="32" height="32" fill="none">
  <!-- Panel 1 (Leftmost - White) -->
  <path d="M4 7L10 12V26L4 21Z" fill="#FFFFFF" stroke="#141415" stroke-width="2" stroke-linejoin="round" />
  
  <!-- Panel 2 (Light Sage) -->
  <path d="M10 12L16 7V21L10 26Z" fill="#D9E2C5" stroke="#141415" stroke-width="2" stroke-linejoin="round" />
  
  <!-- Panel 3 (Medium Sage) -->
  <path d="M16 7L22 12V26L16 21Z" fill="#B2C095" stroke="#141415" stroke-width="2" stroke-linejoin="round" />
  
  <!-- Panel 4 (Rightmost - Full Sage) -->
  <path d="M22 12L28 7V21L22 26Z" fill="#8A9A5B" stroke="#141415" stroke-width="2" stroke-linejoin="round" />

  <!-- Arrow Shadow (Obsidian Shifted Down) -->
  <g transform="translate(0, 1.2)">
    <path d="M4 20L16 11L22 18L27 12" stroke="#141415" stroke-width="5" stroke-linecap="round" stroke-linejoin="round" fill="none" />
    <path d="M22 12H27V17" stroke="#141415" stroke-width="5" stroke-linecap="round" stroke-linejoin="round" fill="none" />
  </g>

  <!-- Arrow Outline (Thick Obsidian Stroke) -->
  <path d="M4 20L16 11L22 18L27 12" stroke="#141415" stroke-width="5" stroke-linecap="round" stroke-linejoin="round" fill="none" />
  <path d="M22 12H27V17" stroke="#141415" stroke-width="5" stroke-linecap="round" stroke-linejoin="round" fill="none" />

  <!-- Arrow Inner Fill (Thinner Peach Stroke) -->
  <path d="M4 20L16 11L22 18L27 12" stroke="#FFA69E" stroke-width="2.5" stroke-linecap="round" stroke-linejoin="round" fill="none" />
  <path d="M22 12H27V17" stroke="#FFA69E" stroke-width="2.5" stroke-linecap="round" stroke-linejoin="round" fill="none" />
</svg>
